# This file uses centimeters as units for non-parametric coordinates.

g default
v 0.923880 4.218178 -0.382683
v 0.707107 4.218178 -0.707106
v 0.382684 4.218178 -0.923879
v 0.000001 4.218178 -1.000000
v -0.382683 4.218178 -0.923880
v -0.707106 4.218178 -0.707107
v -0.923879 4.218178 -0.382684
v -1.000000 4.218178 -0.000000
v -0.923880 4.218178 0.382683
v -0.707107 4.218178 0.707107
v -0.382684 4.218178 0.923879
v -0.000000 4.218178 1.000000
v 0.382683 4.218178 0.923880
v 0.707107 4.218178 0.707107
v 0.923880 4.218178 0.382683
v 1.000000 4.218178 0.000000
v 0.923880 107.954964 -0.382683
v 0.707107 107.954964 -0.707106
v 0.382684 107.954964 -0.923879
v 0.000001 107.954964 -1.000000
v -0.382683 107.954994 -0.923880
v -0.707106 107.954994 -0.707107
v -0.923879 107.954994 -0.382684
v -1.000000 107.954994 -0.000000
v -0.923880 107.954994 0.382683
v -0.707107 107.954994 0.707107
v -0.382684 107.954994 0.923879
v -0.000000 107.954964 1.000000
v 0.382683 107.954964 0.923880
v 0.707107 107.954964 0.707107
v 0.923880 107.954964 0.382683
v 1.000000 107.954964 0.000000
v 0.000000 0.000000 0.000000
v 0.000000 108.494316 0.000000
v -0.353553 108.361519 -0.353554
v -0.191341 108.361519 -0.461940
v 0.000000 108.361519 -0.500000
v 0.191342 108.361488 -0.461940
v 0.353554 108.361488 -0.353553
v 0.461940 108.361488 -0.191341
v 0.500000 108.361488 0.000000
v 0.461940 108.361488 0.191342
v 0.353553 108.361488 0.353553
v 0.191342 108.361488 0.461940
v -0.000000 108.361519 0.500000
v -0.191342 108.361519 0.461940
v -0.353553 108.361519 0.353553
v -0.461940 108.361488 0.191342
v -0.500000 108.361519 -0.000000
v -0.461940 108.361488 -0.191342
v 0.763432 108.139412 -0.316223
v 0.826333 108.139412 -0.000000
v 0.763432 108.139412 0.316224
v 0.584305 108.139412 0.584305
v 0.316224 108.139412 0.763432
v -0.000000 108.139412 0.826333
v -0.316224 108.139435 0.763432
v -0.584305 108.139412 0.584305
v -0.763432 108.139435 0.316224
v -0.826333 108.139435 -0.000000
v -0.763432 108.139435 -0.316224
v -0.584305 108.139412 -0.584306
v -0.316223 108.139435 -0.763432
v 0.000000 108.139412 -0.826332
v 0.316224 108.139412 -0.763431
v 0.584306 108.139412 -0.584305
v 0.500000 1.780000 0.000000
v 0.461940 1.780000 -0.191341
v 0.353554 1.780000 -0.353553
v 0.191342 1.780000 -0.461940
v 0.000000 1.780000 -0.500000
v -0.191341 1.780000 -0.461940
v -0.353553 1.780000 -0.353554
v -0.461940 1.780000 -0.191342
v -0.500000 1.780000 -0.000000
v -0.461940 1.780000 0.191342
v -0.353553 1.780000 0.353553
v -0.191342 1.780000 0.461940
v -0.000000 1.780000 0.500000
v 0.191342 1.780000 0.461940
v 0.353553 1.780000 0.353553
v 0.461940 1.780000 0.191342
v 0.763758 2.962766 -0.000000
v 0.705620 2.962766 0.292278
v 0.540058 2.962766 0.540058
v 0.292277 2.962766 0.705620
v -0.000000 2.962766 0.763758
v -0.292278 2.962766 0.705620
v -0.540059 2.962766 0.540058
v -0.705620 2.962766 0.292277
v -0.763758 2.962766 -0.000000
v -0.705620 2.962766 -0.292278
v -0.540058 2.962766 -0.540059
v -0.292277 2.962766 -0.705620
v 0.000000 2.962766 -0.763758
v 0.292278 2.962766 -0.705620
v 0.540059 2.962766 -0.540058
v 0.705621 2.962766 -0.292277
vt 0.085083 0.921379
vt 0.077796 0.921289
vt 0.075541 0.020130
vt 0.082565 0.019851
vt 0.070510 0.921241
vt 0.068527 0.020297
vt 0.063226 0.921238
vt 0.061516 0.020360
vt 0.055941 0.921280
vt 0.054506 0.020319
vt 0.048655 0.921367
vt 0.047492 0.020181
vt 0.041368 0.921496
vt 0.040469 0.019933
vt 0.034078 0.921660
vt 0.033431 0.019587
vt 0.026784 0.921854
vt 0.026367 0.019156
vt 0.019484 0.922065
vt 0.019266 0.018654
vt 0.012175 0.922279
vt 0.012106 0.018127
vt 0.004855 0.922476
vt 0.004855 0.017655
vt 0.121602 0.922222
vt 0.114278 0.922041
vt 0.110937 0.017925
vt 0.118189 0.017462
vt 0.106968 0.921850
vt 0.103775 0.018475
vt 0.099668 0.921668
vt 0.096671 0.019014
vt 0.092373 0.921508
vt 0.089605 0.019477
vt 0.075184 0.942765
vt 0.081048 0.943332
vt 0.074975 0.964550
vt 0.071194 0.963861
vt 0.069271 0.942444
vt 0.067342 0.963459
vt 0.063335 0.942356
vt 0.063455 0.963339
vt 0.057398 0.942496
vt 0.059566 0.963500
vt 0.051485 0.942868
vt 0.055711 0.963943
vt 0.045620 0.943486
vt 0.051925 0.964676
vt 0.039830 0.944374
vt 0.048244 0.965711
vt 0.034149 0.945570
vt 0.044712 0.967060
vt 0.028620 0.947132
vt 0.041371 0.968741
vt 0.023300 0.949141
vt 0.038272 0.970770
vt 0.018272 0.951717
vt 0.035468 0.973159
vt 0.103280 0.948756
vt 0.108228 0.951244
vt 0.091429 0.972741
vt 0.088612 0.970421
vt 0.098007 0.946815
vt 0.085512 0.968457
vt 0.092503 0.945311
vt 0.082176 0.966834
vt 0.086834 0.944168
vt 0.078649 0.965536
vt 0.074149 0.016649
vt 0.080349 0.016202
vt 0.067851 0.016900
vt 0.061529 0.016939
vt 0.055187 0.016984
vt 0.048884 0.016660
vt 0.042629 0.016355
vt 0.036502 0.015767
vt 0.030420 0.015124
vt 0.024514 0.014111
vt 0.018992 0.012713
vt 0.014465 0.009885
vt 0.103994 0.012601
vt 0.108677 0.009479
vt 0.098436 0.014047
vt 0.092573 0.015034
vt 0.086526 0.015710
vt 0.056664 0.011642
vt 0.051970 0.011220
vt 0.061480 0.003283
vt 0.061494 0.011846
vt 0.066320 0.011594
vt 0.071007 0.011136
vt 0.075574 0.010682
vt 0.079849 0.009911
vt 0.083829 0.008932
vt 0.087372 0.007676
vt 0.090172 0.005668
vt 0.091652 0.002822
vt 0.032811 0.005772
vt 0.031315 0.002958
vt 0.035604 0.007766
vt 0.039145 0.009017
vt 0.043126 0.009998
vt 0.047459 0.010630
vt 0.063698 0.997845
vn 0.923878 -0.001942 -0.382683
vn 0.707106 -0.001942 -0.707105
vn 0.707106 0.001396 -0.707106
vn 0.923879 0.001396 -0.382683
vn 0.382683 -0.001942 -0.923878
vn 0.382684 0.001396 -0.923879
vn 0.000001 -0.001942 -0.999998
vn -0.000004 0.001396 -0.999999
vn -0.382682 -0.001942 -0.923878
vn -0.382687 0.001396 -0.923877
vn -0.707105 -0.001942 -0.707106
vn -0.707106 0.001396 -0.707106
vn -0.923878 -0.001942 -0.382683
vn -0.923878 0.001396 -0.382683
vn -0.999998 -0.001942 -0.000000
vn -0.999999 0.001396 -0.000000
vn -0.923878 -0.001942 0.382682
vn -0.923879 0.001396 0.382683
vn -0.707106 -0.001942 0.707105
vn -0.707106 0.001396 0.707106
vn -0.382683 -0.001942 0.923878
vn -0.382688 0.001396 0.923877
vn -0.000000 -0.001942 0.999998
vn -0.000005 0.001396 0.999999
vn 0.382683 -0.001942 0.923878
vn 0.382683 0.001396 0.923879
vn 0.707105 -0.001942 0.707106
vn 0.707106 0.001396 0.707106
vn 0.923878 -0.001942 0.382683
vn 0.923879 0.001396 0.382683
vn 0.999998 -0.001942 0.000000
vn 0.999999 0.001396 0.000000
vn 0.693135 -0.197807 -0.693135
vn 0.905625 -0.197807 -0.375122
vn 0.897591 -0.236854 -0.371794
vn 0.686987 -0.236854 -0.686986
vn 0.375122 -0.197807 -0.905624
vn 0.371795 -0.236854 -0.897591
vn 0.000001 -0.197807 -0.980241
vn 0.000001 -0.236854 -0.971545
vn -0.375122 -0.197807 -0.905625
vn -0.371794 -0.236854 -0.897591
vn -0.693135 -0.197807 -0.693135
vn -0.686986 -0.236854 -0.686987
vn -0.905624 -0.197807 -0.375122
vn -0.897591 -0.236854 -0.371795
vn -0.980241 -0.197807 -0.000000
vn -0.971545 -0.236854 -0.000000
vn -0.905625 -0.197807 0.375122
vn -0.897591 -0.236854 0.371794
vn -0.693135 -0.197807 0.693135
vn -0.686987 -0.236854 0.686986
vn -0.375122 -0.197807 0.905625
vn -0.371794 -0.236854 0.897591
vn -0.000000 -0.197807 0.980241
vn -0.000000 -0.236854 0.971545
vn 0.375122 -0.197807 0.905625
vn 0.371794 -0.236854 0.897591
vn 0.693135 -0.197807 0.693135
vn 0.686986 -0.236854 0.686986
vn 0.905625 -0.197807 0.375122
vn 0.897591 -0.236854 0.371794
vn 0.980241 -0.197807 0.000000
vn 0.971545 -0.236854 0.000000
vn 0.461014 0.758234 -0.461029
vn 0.602348 0.758238 -0.249503
vn 0.249512 0.758232 -0.602353
vn 0.000034 0.758229 -0.651989
vn -0.249488 0.758246 -0.602345
vn -0.461016 0.758245 -0.461008
vn -0.602325 0.758251 -0.249519
vn -0.651960 0.758253 0.000000
vn -0.602326 0.758251 0.249519
vn -0.461016 0.758245 0.461009
vn -0.249490 0.758246 0.602344
vn 0.000034 0.758224 0.651994
vn 0.249512 0.758230 0.602354
vn 0.461018 0.758240 0.461015
vn 0.602349 0.758239 0.249498
vn 0.651977 0.758239 0.000005
vn -0.184360 0.876315 -0.445066
vn -0.340670 0.876315 -0.340612
vn 0.000024 1.000000 0.000003
vn 0.000050 0.876318 -0.481734
vn 0.184395 0.876312 -0.445057
vn 0.340644 0.876315 -0.340637
vn 0.445073 0.876314 -0.184349
vn 0.481743 0.876313 0.000007
vn 0.445073 0.876314 0.184350
vn 0.340645 0.876316 0.340634
vn 0.184392 0.876301 0.445080
vn 0.000050 0.876306 0.481755
vn -0.184360 0.876310 0.445075
vn -0.340668 0.876308 0.340631
vn -0.445071 0.876308 0.184379
vn -0.481709 0.876331 -0.000011
vn -0.445071 0.876309 -0.184378
vn -0.000001 -1.000000 0.000001
s 1
g pCylinder2
f 1/1/1 2/2/2 18/3/3 17/4/4
f 2/2/2 3/5/5 19/6/6 18/3/3
f 3/5/5 4/7/7 20/8/8 19/6/6
f 4/7/7 5/9/9 21/10/10 20/8/8
f 5/9/9 6/11/11 22/12/12 21/10/10
f 6/11/11 7/13/13 23/14/14 22/12/12
f 7/13/13 8/15/15 24/16/16 23/14/14
f 8/15/15 9/17/17 25/18/18 24/16/16
f 9/17/17 10/19/19 26/20/20 25/18/18
f 10/19/19 11/21/21 27/22/22 26/20/20
f 11/21/21 12/23/23 28/24/24 27/22/22
f 12/25/23 13/26/25 29/27/26 28/28/24
f 13/26/25 14/29/27 30/30/28 29/27/26
f 14/29/27 15/31/29 31/32/30 30/30/28
f 15/31/29 16/33/31 32/34/32 31/32/30
f 16/33/31 1/1/1 17/4/4 32/34/32
f 97/35/33 98/36/34 68/37/35 69/38/36
f 96/39/37 97/35/33 69/38/36 70/40/38
f 95/41/39 96/39/37 70/40/38 71/42/40
f 94/43/41 95/41/39 71/42/40 72/44/42
f 93/45/43 94/43/41 72/44/42 73/46/44
f 92/47/45 93/45/43 73/46/44 74/48/46
f 91/49/47 92/47/45 74/48/46 75/50/48
f 90/51/49 91/49/47 75/50/48 76/52/50
f 89/53/51 90/51/49 76/52/50 77/54/52
f 88/55/53 89/53/51 77/54/52 78/56/54
f 87/57/55 88/55/53 78/56/54 79/58/56
f 86/59/57 87/60/55 79/61/56 80/62/58
f 85/63/59 86/59/57 80/62/58 81/64/60
f 84/65/61 85/63/59 81/64/60 82/66/62
f 83/67/63 84/65/61 82/66/62 67/68/64
f 98/36/34 83/67/63 67/68/64 68/37/35
f 17/4/4 18/3/3 66/69/65 51/70/66
f 18/3/3 19/6/6 65/71/67 66/69/65
f 19/6/6 20/8/8 64/72/68 65/71/67
f 20/8/8 21/10/10 63/73/69 64/72/68
f 21/10/10 22/12/12 62/74/70 63/73/69
f 22/12/12 23/14/14 61/75/71 62/74/70
f 23/14/14 24/16/16 60/76/72 61/75/71
f 24/16/16 25/18/18 59/77/73 60/76/72
f 25/18/18 26/20/20 58/78/74 59/77/73
f 26/20/20 27/22/22 57/79/75 58/78/74
f 27/22/22 28/24/24 56/80/76 57/79/75
f 28/28/24 29/27/26 55/81/77 56/82/76
f 29/27/26 30/30/28 54/83/78 55/81/77
f 30/30/28 31/32/30 53/84/79 54/83/78
f 31/32/30 32/34/32 52/85/80 53/84/79
f 32/34/32 17/4/4 51/70/66 52/85/80
f 36/86/81 35/87/82 34/88/83
f 37/89/84 36/86/81 34/88/83
f 38/90/85 37/89/84 34/88/83
f 39/91/86 38/90/85 34/88/83
f 40/92/87 39/91/86 34/88/83
f 41/93/88 40/92/87 34/88/83
f 42/94/89 41/93/88 34/88/83
f 43/95/90 42/94/89 34/88/83
f 44/96/91 43/95/90 34/88/83
f 45/97/92 44/96/91 34/88/83
f 46/98/93 45/99/92 34/88/83
f 47/100/94 46/98/93 34/88/83
f 48/101/95 47/100/94 34/88/83
f 49/102/96 48/101/95 34/88/83
f 50/103/97 49/102/96 34/88/83
f 35/87/82 50/103/97 34/88/83
f 52/85/80 51/70/66 40/92/87 41/93/88
f 53/84/79 52/85/80 41/93/88 42/94/89
f 54/83/78 53/84/79 42/94/89 43/95/90
f 55/81/77 54/83/78 43/95/90 44/96/91
f 56/82/76 55/81/77 44/96/91 45/97/92
f 57/79/75 56/80/76 45/99/92 46/98/93
f 58/78/74 57/79/75 46/98/93 47/100/94
f 59/77/73 58/78/74 47/100/94 48/101/95
f 60/76/72 59/77/73 48/101/95 49/102/96
f 61/75/71 60/76/72 49/102/96 50/103/97
f 62/74/70 61/75/71 50/103/97 35/87/82
f 63/73/69 62/74/70 35/87/82 36/86/81
f 64/72/68 63/73/69 36/86/81 37/89/84
f 65/71/67 64/72/68 37/89/84 38/90/85
f 66/69/65 65/71/67 38/90/85 39/91/86
f 51/70/66 66/69/65 39/91/86 40/92/87
f 68/37/35 67/68/64 33/104/98
f 69/38/36 68/37/35 33/104/98
f 70/40/38 69/38/36 33/104/98
f 71/42/40 70/40/38 33/104/98
f 72/44/42 71/42/40 33/104/98
f 73/46/44 72/44/42 33/104/98
f 74/48/46 73/46/44 33/104/98
f 75/50/48 74/48/46 33/104/98
f 76/52/50 75/50/48 33/104/98
f 77/54/52 76/52/50 33/104/98
f 78/56/54 77/54/52 33/104/98
f 79/58/56 78/56/54 33/104/98
f 80/62/58 79/61/56 33/104/98
f 81/64/60 80/62/58 33/104/98
f 82/66/62 81/64/60 33/104/98
f 67/68/64 82/66/62 33/104/98
f 16/33/31 15/31/29 84/65/61 83/67/63
f 15/31/29 14/29/27 85/63/59 84/65/61
f 14/29/27 13/26/25 86/59/57 85/63/59
f 13/26/25 12/25/23 87/60/55 86/59/57
f 12/23/23 11/21/21 88/55/53 87/57/55
f 11/21/21 10/19/19 89/53/51 88/55/53
f 10/19/19 9/17/17 90/51/49 89/53/51
f 9/17/17 8/15/15 91/49/47 90/51/49
f 8/15/15 7/13/13 92/47/45 91/49/47
f 7/13/13 6/11/11 93/45/43 92/47/45
f 6/11/11 5/9/9 94/43/41 93/45/43
f 5/9/9 4/7/7 95/41/39 94/43/41
f 4/7/7 3/5/5 96/39/37 95/41/39
f 3/5/5 2/2/2 97/35/33 96/39/37
f 2/2/2 1/1/1 98/36/34 97/35/33
f 1/1/1 16/33/31 83/67/63 98/36/34
